<svg aria-hidden="true" style="position: absolute; width: 0; height: 0; overflow: hidden;" version="1.1" xmlns="http://www.w3.org/2000/svg" xmlns:xlink="http://www.w3.org/1999/xlink">
<defs>
<symbol id="AlertAttention" viewBox="0 0 32 32">
<path fill="#cfa53d" style="fill: var(--color1, #cfa53d)" d="M31.4 25.4l-12.6-21.6c-0.8-1.4-1.8-2-2.8-2s-2 0.6-2.8 2l-12.5 21.6c-1.5 2.7-0.3 4.9 2.8 4.9h24.9c3.2 0.1 4.5-2.2 3-4.9z"></path>
<path fill="#fff" style="fill: var(--color2, #fff)" d="M14.5 22.5h3.2v3.2h-3.2v-3.2z"></path>
<path fill="#fff" style="fill: var(--color2, #fff)" d="M17.7 21.2h-3.4l-0.6-10.3h4.6z"></path>
</symbol>
<symbol id="AlertCaution" viewBox="0 0 32 32">
<path fill="#ed211b" style="fill: var(--color3, #ed211b)" d="M31.4 25.4l-12.6-21.6c-0.8-1.4-1.8-2-2.8-2s-2 0.6-2.8 2l-12.5 21.6c-1.5 2.7-0.3 4.9 2.8 4.9h24.9c3.2 0.1 4.5-2.2 3-4.9z"></path>
<path fill="#fff" style="fill: var(--color2, #fff)" d="M14.5 22.5h3.2v3.2h-3.2v-3.2z"></path>
<path fill="#fff" style="fill: var(--color2, #fff)" d="M17.7 21.2h-3.4l-0.6-10.3h4.6z"></path>
</symbol>
<symbol id="IconAttention" viewBox="0 0 32 32">
<path fill="#ecc30f" style="fill: var(--color4, #ecc30f)" d="M28.631 0h-25.262c-1.856 0-3.369 1.512-3.369 3.369v25.262c0 1.856 1.512 3.369 3.369 3.369h25.262c1.85 0 3.369-1.512 3.369-3.369v-25.262c0-1.856-1.512-3.369-3.369-3.369z"></path>
<path fill="#343a40" style="fill: var(--color5, #343a40)" d="M18.262 26.475h-4.525v-4.525h4.525z"></path>
<path fill="#343a40" style="fill: var(--color5, #343a40)" d="M16.756 20.438h-1.512l-1.506-14.075h4.525z"></path>
</symbol>
<symbol id="Navigation" viewBox="0 0 32 32">
<path d="M18 22.3l-12.5 3.2-1.2-2 21.3-23.5 2.1 0.8-0.8 30.5-2.3 0.7-6.6-9.7zM25.2 4l-16.4 18.2 9.4-2.4 1.3 0.5 5 7.3 0.7-23.6z"></path>
</symbol>
<symbol id="payments" viewBox="0 0 32 32">
<path d="M16 0c8.8 0 16 7.2 16 16s-7.2 16-16 16-16-7.2-16-16 7.2-16 16-16zM18.1 5.3h-7.4c-1.7 0-2.1 0.3-2.1 2.2v0 16.3c0 1.7 0.4 2 2.3 2v0h10.8c1.7 0 2.1-0.3 2.1-2.2v0-12.3l-5.7-6zM17.8 6.6v3.9c0 0.5 0.5 1.1 1 1.1h0.6c1.1 0 3 0 3 0v13h-12.6v-18h8zM17.5 20.2h-6.2v1.2h6.2v-1.2zM20 17.7h-8.7v1.3h8.7v-1.3zM20 15.3h-8.7v1.2h8.7v-1.2z"></path>
</symbol>
<symbol id="pending" viewBox="0 0 32 32">
<path d="M16 32c-8.8 0-16-7.2-16-16s7.2-16 16-16c8.8 0 16 7.2 16 16s-7.2 16-16 16zM16 3c-7.2 0-13 5.8-13 13s5.9 13 13 13 13-5.9 13-13-5.8-13-13-13z"></path>
<path d="M21.3 23.5l-7-6.4v-9.7h2.9v8.4l6.1 5.5z"></path>
</symbol>
<symbol id="planCheck" viewBox="0 0 32 32">
<path d="M32 7.3l-5-4.9-12.4 12.5-5.6-5.7-4.9 5 10.6 10.6 12.7-12.7c0.4 1.3 0.6 2.6 0.6 4 0 7.4-6 13.3-13.4 13.3s-13.3-6-13.3-13.4c0-7.4 6-13.3 13.4-13.3 2.6 0 5.2 0.8 7.4 2.3l0.7-1c-2.4-1.6-5.2-2.5-8.1-2.5-8.2-0.1-14.7 6.4-14.7 14.5s6.5 14.6 14.6 14.6c1.8 0 3.6-0.3 5.2-1 7.4-2.9 11-11.1 8.4-18.5l3.8-3.8zM5.7 14.2l3.3-3.3 5.6 5.6 12.4-12.4 3.3 3.3-15.7 15.7-8.9-8.9z"></path>
</symbol>
<symbol id="planGuardian" viewBox="0 0 32 32">
<path d="M22.8 0h-13.6c-1.3 0-2.4 1.1-2.4 2.4v27.3c0 1.3 1.1 2.4 2.3 2.4h13.7c1.3 0 2.3-1.1 2.3-2.4v-27.3c0.1-1.3-1-2.4-2.3-2.4zM9.2 0.9h13.7c0.8 0 1.4 0.7 1.4 1.5v3.3h-16.6v-3.3c0-0.8 0.7-1.5 1.5-1.5zM24.3 6.6v18.8h-16.6v-18.8h16.6zM22.8 31.1h-13.6c-0.8 0-1.4-0.7-1.4-1.5v-3.3h16.6v3.3c-0.1 0.8-0.8 1.5-1.6 1.5z"></path>
<path d="M16 27.5c-0.7 0-1.2 0.6-1.2 1.2 0 0.7 0.6 1.2 1.2 1.2 0.7 0 1.2-0.6 1.2-1.2 0.1-0.7-0.5-1.2-1.2-1.2z"></path>
<path d="M14.6 3.7h2.8c0.2 0 0.4-0.2 0.4-0.4s-0.2-0.4-0.4-0.4h-2.8c-0.2 0-0.4 0.2-0.4 0.4-0.1 0.2 0.1 0.4 0.4 0.4z"></path>
<path d="M10.1 16.6c0.1 1.3 0.9 5.6 5.8 6.9h0.2c4.9-1.3 5.7-5.6 5.8-6.9 0.2-1.8 0-5 0-5.2v-0.5h-0.5c-2.4 0.2-4.2-0.6-5.1-2.1l-0.3-0.5-0.4 0.7c-0.9 1.6-2.6 2.3-5.1 2.1h-0.5v0.5c0.1 0-0.1 3.2 0.1 5zM10.9 11.9c2.7 0.1 4.2-0.9 5.1-2 1.1 1.3 2.8 2 5.1 2 0 1 0.1 3.2 0 4.6s-0.9 4.9-5 6c-4.2-1.2-4.9-4.6-5-6-0.3-1.3-0.2-3.6-0.2-4.6z"></path>
<path d="M13.6 19.6l2.4-1.7 2.4 1.7-0.9-2.8 2.4-1.8h-3l-0.9-2.8-0.9 2.8h-3l2.4 1.8z"></path>
</symbol>
<symbol id="planRemoteAccess" viewBox="0 0 32 32">
<path d="M22.5 0h-13c-1.2 0-2.2 1-2.2 2.3v27.4c0 0 0 0 0 0 0 1.3 1 2.3 2.3 2.3h12.9c0 0 0 0 0 0 1.3 0 2.3-1 2.3-2.3v-27.4c0 0 0 0 0 0-0.1-1.3-1.1-2.3-2.3-2.3zM8.2 2.3c0-0.7 0.6-1.3 1.3-1.3h12.9c0.7 0 1.3 0.6 1.3 1.3v3.1h-15.5v-3.1c0 0 0 0 0 0zM23.8 6.4v19.3h-15.6v-19.3h15.6zM22.5 31h-13c-0.7 0-1.3-0.6-1.3-1.3v-3.1h15.6v3.1c0 0.7-0.6 1.3-1.3 1.3z"></path>
<path d="M16 27.7c-0.6 0-1.2 0.5-1.2 1.2 0 0.6 0.5 1.2 1.2 1.2 0.6 0 1.2-0.5 1.2-1.2 0 0 0 0 0 0 0-0.7-0.6-1.3-1.2-1.2z"></path>
<path d="M14.7 3.6h2.7c0.2 0 0.4-0.2 0.4-0.4s-0.1-0.4-0.4-0.5h-2.7c-0.2 0-0.4 0.2-0.4 0.4s0.1 0.5 0.4 0.5z"></path>
<path d="M15.8 22.3v0c1.2 0 2.3-0.4 3.3-1 2.8-1.8 3.7-5.4 2.1-8.2l1.2-1.2-0.7-0.7-6 6-2.6-2.6-0.7 0.7 3.3 3.3 4.7-4.7c1 1.9 0.7 4.2-0.7 5.8-1.9 2.1-5.2 2.3-7.3 0.4s-2.3-5.2-0.4-7.3c1.9-2.1 5.2-2.3 7.3-0.4l0.6-0.7c-1.1-1-2.6-1.6-4.1-1.6-3.4 0-6.1 2.8-6.1 6.2 0 3.2 2.7 6 6.1 6z"></path>
</symbol>
<symbol id="planRemoteAccessSafetySecurity" viewBox="0 0 32 32">
<path d="M27.2 0h-12.9c-1.3 0-2.3 1-2.3 2.3v1.4c-1.1-0.4-2-1-2.5-2l-0.4-0.7-0.4 0.7c-1 1.7-3 2.5-5.6 2.3h-0.5v0.5c-0.1 1.9-0.1 3.8 0 5.7 0.3 3.6 2.8 6.7 6.4 7.6h0.2c1-0.2 2-0.7 2.8-1.3v13.3c0 0 0 0 0 0 0 1.3 1 2.3 2.3 2.3h12.9c0 0 0 0 0 0 1.3 0 2.3-1 2.3-2.3v-27.5c0 0 0 0 0 0 0-1.3-1-2.3-2.3-2.3zM9.1 16.7c-3.1-0.7-5.4-3.4-5.6-6.7-0.1-1.6-0.1-3.3 0-5 3 0.1 4.7-1 5.6-2.2 1.2 1.5 3.1 2.2 5.6 2.2 0.1 1.7 0.1 3.4 0 5.1-0.2 3.2-2.5 5.9-5.6 6.6zM15.6 10.2c0.1-1.9 0.1-3.8 0-5.7v-0.5h-0.5c-0.8 0.1-1.5 0-2.1-0.1v-1.6c0 0 0 0 0 0 0-0.7 0.6-1.3 1.3-1.3h12.9c0.7 0 1.3 0.6 1.3 1.3v3.1h-10.9v1h10.9v19.3h-15.5v-10c1.5-1.4 2.5-3.4 2.6-5.5zM27.2 31h-12.9c-0.7 0-1.3-0.6-1.3-1.3v-3.1h15.6v3.1c-0.1 0.7-0.6 1.3-1.4 1.3z"></path>
<path d="M22 28.8c0 0.663-0.537 1.2-1.2 1.2s-1.2-0.537-1.2-1.2c0-0.663 0.537-1.2 1.2-1.2s1.2 0.537 1.2 1.2z"></path>
<path d="M19.4 3.6h2.7c0.2 0 0.4-0.2 0.4-0.4s-0.1-0.4-0.4-0.5h-2.7c-0.2 0-0.4 0.2-0.4 0.4s0.2 0.5 0.4 0.5z"></path>
<path d="M20.9 23.7v0c1.2 0 2.3-0.3 3.3-1 2.8-1.8 3.7-5.4 2.1-8.2l0.9-0.9-0.8-0.6-5.6 5.6-2.6-2.6-0.7 0.7 3.2 3.3 4.7-4.7c0.9 1.9 0.7 4.2-0.8 5.8-1.9 2.1-5.2 2.3-7.3 0.4s-2.3-5.2-0.4-7.3 5.2-2.3 7.3-0.4l0.6-0.7c-1.1-1-2.6-1.6-4.1-1.6-3.4 0-6.1 2.8-6.1 6.2 0.1 3.3 2.9 6.1 6.3 6z"></path>
<path d="M9.9 8.8l-0.8-2.4-0.8 2.4h-2.5l2 1.4-0.7 2.4 2-1.5 2 1.5-0.8-2.4 2.1-1.4z"></path>
</symbol>
<symbol id="planSafetySecurity" viewBox="0 0 32 32">
<path d="M16 8.5l-1.9 5.9h-6.1l4.9 3.6-1.9 5.8 5-3.6 4.9 3.6-1.8-5.8 4.9-3.6h-6.1l-1.9-5.9zM17.9 17.6l1.2 3.7-3.1-2.3-3.1 2.3 1.2-3.7-3.1-2.3h3.8l1.2-3.7 1.2 3.7h3.8l-3.1 2.3z"></path>
<path d="M28.5 6v-0.5h-0.5c-5.4 0.4-9.5-1.4-11.6-4.9l-0.4-0.6-0.4 0.7c-2.2 3.6-6.2 5.3-11.6 4.9h-0.5v0.4c0 0.3-0.4 7.3 0 11.3 0.2 2.7 1.8 11.8 12.4 14.7h0.2c10.6-2.8 12.2-12 12.4-14.7 0.4-3.9 0-11 0-11.3zM27.6 17.2c-0.2 2.6-1.7 11.1-11.6 13.8-9.8-2.7-11.3-11.2-11.6-13.8-0.3-3.3-0.1-8.9 0-10.6 6.5 0.4 9.9-2.2 11.6-4.7 2.3 3.3 6.4 4.9 11.6 4.7 0.1 1.7 0.3 7.3 0 10.6z"></path>
<path d="M25.9 8.6h-0.5c-3.7-0.1-6.9-1.3-9-3.4l-0.4-0.3-0.3 0.3c-2.3 2.2-5.3 3.3-9.1 3.4h-0.4v0.5c-0.2 2.6-0.1 5.3 0 7.9 0.2 2.8 1.7 9.5 9.6 11.9h0.2c8-2.4 9.4-9.1 9.6-11.9 0.2-2.6 0.2-5.3 0.1-7.9v-0.5zM24.8 16.9c-0.2 2.6-1.5 8.7-8.8 11-7.3-2.3-8.6-8.5-8.8-11-0.2-2.4-0.2-4.9-0.1-7.3 3.6-0.2 6.6-1.3 8.9-3.4 2.3 2 5.3 3.1 8.9 3.3 0.1 2.5 0.1 5-0.1 7.4z"></path>
</symbol>
<symbol id="planUnlimitedAccess" viewBox="0 0 32 32">
<path d="M12.6 27.7c-0.6 0-1.2 0.5-1.2 1.2 0 0.6 0.5 1.2 1.2 1.2 0.6 0 1.2-0.5 1.2-1.2-0.1-0.7-0.6-1.2-1.2-1.2z"></path>
<path d="M11.2 3.6h2.7c0.2 0 0.4-0.2 0.4-0.4s-0.1-0.4-0.4-0.5h-2.7c-0.2 0-0.4 0.2-0.4 0.4s0.2 0.5 0.4 0.5z"></path>
<path d="M20.3 25.7h-15.5v-19.3h15.6v2.5c0.3 0.2 0.7 0.4 1 0.6v-7.2c-0.1-1.3-1.1-2.3-2.4-2.3h-12.9c-1.3 0-2.3 1-2.3 2.3v0 27.4c0 1.3 1 2.3 2.3 2.3h12.9c1.3 0 2.3-1 2.3-2.3 0 0 0 0 0 0v-8.3c-0.3 0.2-0.6 0.4-1 0.6v3.7zM6.1 1h12.9c0.7 0 1.3 0.6 1.3 1.3v3.1h-15.5v-3.1c0-0.7 0.6-1.3 1.3-1.3zM19 31h-12.9c-0.7 0-1.3-0.6-1.3-1.3v-3.1h15.6v3.1c-0.1 0.7-0.6 1.3-1.4 1.3z"></path>
<path d="M24.9 7.3l-0.7 0.7c4.1 4.1 4.1 10.7 0 14.8l0.7 0.7c4.4-4.5 4.4-11.7 0-16.2z"></path>
<path d="M22.7 9.5l-0.7 0.7c2.9 2.9 2.9 7.6 0 10.5l0.7 0.7c3.3-3.3 3.3-8.6 0-11.9z"></path>
<path d="M20.6 19.2c2.1-2.1 2.1-5.5 0-7.6l-0.7 0.7c1.7 1.7 1.7 4.5 0 6.3l0.7 0.6z"></path>
<path d="M10.7 17.1h4v1h-4v-1z"></path>
<path d="M9.1 16.3c-0.3 0-0.6 0.3-0.6 0.6s0.3 0.6 0.6 0.6c0.3 0 0.6-0.3 0.6-0.6s-0.2-0.6-0.6-0.6z"></path>
<path d="M18.8 13.9h-1.6v0.6l-1.4-1.7c-0.2-0.3-0.6-0.4-0.9-0.4h-4.5c-0.4 0-0.7 0.2-0.9 0.4l-1.5 1.7v-0.6h-1.7v1h1.4l-0.9 1v4.7c0 0.1 0.1 0.1 0.1 0.1h0.9c0.1 0 0.1-0.1 0.1-0.1v-0.8h9.1v0.8c0 0.1 0.1 0.1 0.1 0.1h0.9c0.1 0 0.1-0.1 0.1-0.1v-4.7l-0.9-1h1.3v-1zM17.4 18.8h-9.6v-2.6l0.4-0.4c3.1-0.1 6.1-0.1 8.9 0l0.4 0.4v2.6zM10.1 13.4c0.1-0.1 0.1-0.1 0.2-0.1h4.5c0.1 0 0.2 0 0.2 0.1l1.2 1.4c-2.3-0.1-4.7-0.1-7.2 0l1.1-1.4z"></path>
<path d="M16.2 16.3c-0.3 0-0.6 0.3-0.6 0.6s0.3 0.6 0.6 0.6c0.3 0 0.6-0.3 0.6-0.6s-0.3-0.6-0.6-0.6z"></path>
</symbol>
<symbol id="planUnlimitedAccessSafetySecurity" viewBox="0 0 32 32">
<path d="M18.2 28.3c0 0.608-0.492 1.1-1.1 1.1s-1.1-0.492-1.1-1.1c0-0.608 0.493-1.1 1.1-1.1s1.1 0.492 1.1 1.1z"></path>
<path d="M18.3 4.1c0.2 0 0.3-0.2 0.4-0.4 0-0.2-0.1-0.4-0.4-0.5h-2.6c-0.2 0-0.3 0.2-0.4 0.4 0 0.2 0.1 0.4 0.4 0.5h2.6z"></path>
<path d="M24.5 25.2h-14.9v-8.8c1.7-1.4 2.7-3.4 2.9-5.6 0.1-1.8 0.1-3.6 0-5.4v-0.4h-0.5c-0.9 0.1-1.7 0-2.4-0.2v-2c0-0.7 0.6-1.3 1.3-1.3 0 0 0 0 0 0h12.4c0.7 0 1.3 0.6 1.3 1.3v3h-10.8v0.9h10.7v5.1c0.3 0.2 0.6 0.4 0.9 0.6v-9.5c0-1.2-1-2.2-2.2-2.2h-12.3c-1.2 0-2.2 1-2.2 2.2v0 1.7c-0.9-0.4-1.6-1-2-1.7l-0.4-0.8-0.4 0.7c-1 1.7-2.8 2.4-5.4 2.2h-0.4v0.5c-0.1 1.8-0.1 3.6 0 5.4 0.3 3.5 2.7 6.4 6.1 7.2h0.2c0.8-0.2 1.6-0.5 2.3-1v12c0 1.2 1 2.2 2.2 2.2 0 0 0 0 0 0h12.4c1.2 0 2.2-1 2.2-2.2v-5.6c-0.3 0.2-0.6 0.4-0.9 0.6v1.1zM6.3 17.2c-3-0.7-5.2-3.3-5.3-6.4-0.1-1.6-0.1-3.2 0-4.8 2.9 0.1 4.5-1 5.3-2.1 1.1 1.4 3 2.1 5.3 2.1 0.1 1.6 0.1 3.2 0 4.8-0.1 3.1-2.3 5.7-5.3 6.4zM23.2 30.4h-12.3c-0.7 0-1.3-0.6-1.3-1.3v-3h14.9v3c0 0.7-0.6 1.3-1.3 1.3z"></path>
<path d="M28.8 10.2l-0.7 0.6c3.9 3.9 3.9 10.2 0 14.2l0.7 0.6c4.3-4.2 4.3-11.1 0-15.4z"></path>
<path d="M26.8 12.3l-0.7 0.7c2.8 2.8 2.8 7.3 0 10.1l0.7 0.7c3.1-3.3 3.1-8.4 0-11.5z"></path>
<path d="M24.8 21.6c2-2 2-5.3 0-7.3l-0.7 0.7c1.7 1.7 1.7 4.3 0 6l0.7 0.6z"></path>
<path d="M15.5 19.2h3.8v0.9h-3.8v-0.9z"></path>
<path d="M14 18.4c-0.3 0-0.6 0.3-0.6 0.6s0.3 0.6 0.6 0.6c0.3 0 0.6-0.3 0.6-0.6s-0.3-0.6-0.6-0.6z"></path>
<path d="M23.3 16.1h-1.6v0.6l-1.4-1.6c-0.2-0.3-0.6-0.4-0.9-0.4h-4.3c-0.3 0-0.7 0.2-0.9 0.4l-1.3 1.6v-0.6h-1.6v0.9h1.3l-0.8 1v4.5c0 0.1 0.1 0.1 0.1 0.1h0.9c0.1 0 0.1-0.1 0.1-0.1v-0.8h8.7v0.8c0 0.1 0.1 0.1 0.1 0.1h0.9c0.1 0 0.1-0.1 0.1-0.1v-4.5l-0.7-1h1.3v-0.9zM14.9 15.7c0.1-0.1 0.1-0.1 0.2-0.1h4.3c0.1 0 0.2 0 0.2 0.1l1.1 1.3c-2.2-0.1-4.5-0.1-6.9 0l1.1-1.3zM21.9 20.8h-9.2v-2.5l0.4-0.4c2.9-0.1 5.8-0.1 8.5 0l0.3 0.4v2.5z"></path>
<path d="M20.7 18.4c-0.3 0-0.6 0.3-0.6 0.6s0.3 0.6 0.6 0.6c0.3 0 0.6-0.3 0.6-0.6s-0.3-0.6-0.6-0.6z"></path>
<path d="M7 9.6l-0.7-2.3-0.7 2.3h-2.4l1.9 1.4-0.7 2.3 1.9-1.4 1.9 1.4-0.7-2.3 1.9-1.4z"></path>
</symbol>
<symbol id="Search" viewBox="0 0 32 32">
<path d="M21.539 13.784c-0.006-4.28-3.475-7.747-7.755-7.752h-0c-4.279 0.006-7.746 3.473-7.752 7.751v0.001c0.005 4.281 3.473 7.75 7.753 7.755h0.001c4.281-0.005 7.751-3.474 7.755-7.755v-0zM30.4 28.184c0 1.213-1.003 2.216-2.216 2.216-0.587 0-1.158-0.242-1.557-0.658l-5.936-5.92c-1.928 1.344-4.32 2.147-6.899 2.147-0.003 0-0.006 0-0.009 0h0c-0.001 0-0.002 0-0.003 0-6.727 0-12.181-5.454-12.181-12.181 0-0.002 0-0.003 0-0.005v0c0-0.001 0-0.002 0-0.003 0-6.727 5.454-12.181 12.181-12.181 0.001 0 0.002 0 0.003 0h-0c0.001 0 0.003 0 0.005 0 6.727 0 12.181 5.454 12.181 12.181 0 0.001 0 0.002 0 0.003v-0c0 2.458-0.744 4.88-2.147 6.906l5.936 5.936c0.4 0.4 0.642 0.971 0.642 1.558z"></path>
</symbol>
<symbol id="Wifi" viewBox="0 0 32 32">
<path d="M16 27.2l-4.4-4.3c2.4-2.4 6.3-2.4 8.7 0l-4.3 4.3zM23.3 20c-4-4-10.5-4-14.5 0l-2.9-2.9c5.6-5.6 14.7-5.6 20.4 0l-3 2.9zM29.1 14.2c-7.2-7.2-19-7.2-26.2 0l-2.9-2.8c8.8-8.7 23.2-8.7 32 0l-2.9 2.8z"></path>
</symbol>
</defs>
</svg>
