<svg aria-hidden="true" style="position: absolute; width: 0; height: 0; overflow: hidden;" version="1.1" xmlns="http://www.w3.org/2000/svg" xmlns:xlink="http://www.w3.org/1999/xlink">
<defs>
<symbol id="Navigation" viewBox="0 0 32 32">
<title>Navigation</title>
<path d="M18 22.3l-12.5 3.2-1.2-2 21.3-23.5 2.1 0.8-0.8 30.5-2.3 0.7-6.6-9.7zM25.2 4l-16.4 18.2 9.4-2.4 1.3 0.5 5 7.3 0.7-23.6z"></path>
</symbol>
<symbol id="PlanRemoteAcess" viewBox="0 0 32 32">
<title>PlanRemoteAcess</title>
<path d="M21.4 10.5c0.2 0.2 0.2 0.6 0 0.8l-4.9 5.5c-0.3 0.3-0.7 0.3-1 0.1 0 0 0 0 0 0l-1.8-2c-0.2-0.2-0.2-0.6 0-0.8s0.6-0.2 0.8 0l1.4 1.2 3.1-3.1c-0.8-0.8-1.8-1.3-3-1.3-2.4 0-4.3 1.9-4.3 4.3s1.9 4.3 4.3 4.3c2.4 0 4.3-1.9 4.3-4.3 0-0.6-0.1-1.1-0.3-1.6l0.5-0.6c0.3 0.7 0.5 1.4 0.5 2.2 0 2.8-2.3 5.1-5 5.1s-5-2.3-5-5.1 2.3-5.1 5-5.1c1.4 0 2.6 0.6 3.5 1.5l1.1-1.1c0.2-0.2 0.6-0.3 0.8 0zM23.1 26.1c0 0.5-0.4 0.8-0.8 0.8h-12.6c-0.5 0-0.8-0.4-0.8-0.8v-21.9c0-0.5 0.4-0.8 0.8-0.8h12.6c0.5 0 0.8 0.4 0.8 0.8v21.9zM16 30.7c-0.7 0-1.3-0.6-1.3-1.3s0.6-1.3 1.3-1.3c0.7 0 1.3 0.6 1.3 1.3 0 0.8-0.6 1.3-1.3 1.3zM22.3 0h-12.6c-1.4 0-2.5 1.1-2.5 2.5v27c0 1.4 1.1 2.5 2.5 2.5h12.6c1.4 0 2.5-1.1 2.5-2.5v-27c0-1.4-1.1-2.5-2.5-2.5z"></path>
</symbol>
<symbol id="PlanSafetySecurity" viewBox="0 0 32 32">
<title>PlanSafetySecurity</title>
<path d="M28 5.2c0.4 0 0.8 0.4 0.8 0.8v11.5c0 0-0.3 9.9-12.5 14.3-0.2 0.1-0.4 0.1-0.6 0-12.2-4.2-12.5-14.2-12.5-14.2v-11.5c0-0.5 0.3-0.8 0.8-0.8 5.9-0.3 10.1-3.7 11.5-5 0.3-0.3 0.8-0.3 1.1 0 1.4 1.2 5.5 4.6 11.4 4.9zM27.5 17.4v-10.6c0-0.2-0.2-0.4-0.4-0.4-5.7-0.2-9.7-3.7-10.8-4.7-0.2-0.1-0.4-0.1-0.5 0-1 1-5.1 4.5-10.8 4.7-0.2 0-0.4 0.2-0.4 0.4v10.7c0 0 0.2 9 11.3 12.9 0.1 0 0.2 0 0.3 0 11-4 11.3-13 11.3-13zM26.1 7.7v9.6c0 0-0.2 7.8-9.8 11.3-0.1 0-0.3-0.1-0.3-0.2 0-1 0-4.7 0-8.9 0-0.1 0.1-0.1 0.1-0.1l2.8 1.6c0.1 0 0.2 0 0.1-0.1l-0.6-3.4c0 0 0-0.1 0-0.1l2.4-2.4c0.1-0.1 0-0.2-0.1-0.2l-3.3-0.5c0 0-0.1 0-0.1-0.1l-1.3-3.3c0 0 0 0 0 0 0-3.3 0-6.1 0-7.2 0-0.2 0.2-0.3 0.3-0.2 1.1 1 4.6 3.9 9.6 4.1 0.1-0.1 0.2 0 0.2 0.1zM16 18.4l-1.9 1c-0.1 0-0.2 0-0.1-0.1l0.4-2.2c0 0 0-0.1 0-0.1l-1.5-1.5c-0.1-0.1 0-0.2 0.1-0.2l2.1-0.3c0 0 0.1 0 0.1-0.1l0.9-2c0-0.1 0.1-0.1 0.2 0l0.9 2c0 0 0 0.1 0.1 0.1l2.1 0.3c0.1 0 0.1 0.1 0.1 0.2l-1.8 1.5c0 0 0 0.1 0 0.1l0.4 2.2c0 0.1-0.1 0.2-0.1 0.1l-2-1c0 0 0 0 0 0z"></path>
</symbol>
<symbol id="Wifi" viewBox="0 0 32 32">
<title>Wifi</title>
<path d="M16 27.2l-4.4-4.3c2.4-2.4 6.3-2.4 8.7 0l-4.3 4.3zM23.3 20c-4-4-10.5-4-14.5 0l-2.9-2.9c5.6-5.6 14.7-5.6 20.4 0l-3 2.9zM29.1 14.2c-7.2-7.2-19-7.2-26.2 0l-2.9-2.8c8.8-8.7 23.2-8.7 32 0l-2.9 2.8z"></path>
</symbol>
<symbol id="AlertCaution" viewBox="0 0 32 32">
<title>AlertCaution</title>
<path fill="#ed211b" style="fill: var(--color1, #ed211b)" d="M31.36 25.344l-12.544-21.632c-0.768-1.408-1.792-2.048-2.816-2.048s-2.048 0.64-2.816 2.048l-12.544 21.632c-1.536 2.688-0.256 4.864 2.816 4.864h24.96c3.2 0.128 4.48-2.176 2.944-4.864z"></path>
<path fill="#fff" style="fill: var(--color2, #fff)" d="M14.464 22.4h3.2v3.2h-3.2v-3.2z"></path>
<path fill="#fff" style="fill: var(--color2, #fff)" d="M17.664 21.12h-3.328l-0.64-10.24h4.608z"></path>
</symbol>
<symbol id="IconAttention" viewBox="0 0 32 32">
<title>IconAttention</title>
<path fill="#ecc30f" style="fill: var(--color3, #ecc30f)" d="M28.631 0h-25.262c-1.856 0-3.369 1.512-3.369 3.369v25.262c0 1.856 1.512 3.369 3.369 3.369h25.262c1.85 0 3.369-1.512 3.369-3.369v-25.262c0-1.856-1.512-3.369-3.369-3.369z"></path>
<path fill="#343a40" style="fill: var(--color4, #343a40)" d="M18.262 26.475h-4.525v-4.525h4.525z"></path>
<path fill="#343a40" style="fill: var(--color4, #343a40)" d="M16.756 20.438h-1.512l-1.506-14.075h4.525z"></path>
</symbol>
</defs>
</svg>
